<svg xmlns="http://www.w3.org/2000/svg" viewBox="0 0 200 120" font-family="Arial, sans-serif">
  <rect width="200" height="120" fill="#ffffff"/>
  <rect x="0.5" y="0.5" width="199" height="119" fill="none" stroke="#e5e7eb"/>
  <line x1="24" y1="38" x2="184" y2="38" stroke="#eef1f4"/>
  <line x1="24" y1="62" x2="184" y2="62" stroke="#eef1f4"/>
  <line x1="24" y1="24" x2="24" y2="100" stroke="#cbd5e1"/>
  <line x1="24" y1="100" x2="184" y2="100" stroke="#cbd5e1"/>
  <g stroke="#6b7280" stroke-width="1.2" fill="#b45df2">
    <line x1="52" y1="42" x2="52" y2="90"/><line x1="44" y1="42" x2="60" y2="42"/><line x1="44" y1="90" x2="60" y2="90"/>
    <rect x="42" y="56" width="20" height="22" rx="2" fill-opacity="0.55"/>
    <line x1="42" y1="68" x2="62" y2="68" stroke="#1d2029" stroke-width="2"/>
  </g>
  <g stroke="#6b7280" stroke-width="1.2" fill="#159a77">
    <line x1="100" y1="34" x2="100" y2="78"/><line x1="92" y1="34" x2="108" y2="34"/><line x1="92" y1="78" x2="108" y2="78"/>
    <rect x="90" y="46" width="20" height="20" rx="2" fill-opacity="0.55"/>
    <line x1="90" y1="56" x2="110" y2="56" stroke="#1d2029" stroke-width="2"/>
  </g>
  <g stroke="#6b7280" stroke-width="1.2" fill="#e5a13b">
    <line x1="148" y1="48" x2="148" y2="94"/><line x1="140" y1="48" x2="156" y2="48"/><line x1="140" y1="94" x2="156" y2="94"/>
    <rect x="138" y="62" width="20" height="20" rx="2" fill-opacity="0.55"/>
    <line x1="138" y1="72" x2="158" y2="72" stroke="#1d2029" stroke-width="2"/>
  </g>
  <path d="M72 46 l3 3 -3 3 -3 -3 z" fill="#e5484d"/>
  <path d="M124 88 l3 3 -3 3 -3 -3 z" fill="#e5484d"/>
  <text x="104" y="112" font-size="7" fill="#9ca3af" text-anchor="middle">方法分组</text>
</svg>
